# xmcd CD database file
#
# Track frame offsets:
#	150
#	17569
#	36010
#	54591
#	78727
#	104619
#	130357
#	158782
#	180281
#	195069
#	215455
#	258542
#
# Disc length: 4136 seconds
#
# Revision: 0
# Processed by: cddbd v1.5.1PL0 Copyright (c) Steve Scherf et al.
# Submitted via: CDex 1.51
#
DISCID=9a10260c
DTITLE=Alex Pangman and Her Alley Cats - Live in Montreal
DYEAR=2005
DGENRE=Jazz
TTITLE0=Yours All Yours
TTITLE1=Sing You Sinners
TTITLE2=Serenade In The Night
TTITLE3=Through The Courtesy Of Love
TTITLE4=They Say
TTITLE5=Blues My Naughty Sweety Gives To Me
TTITLE6=Dinah
TTITLE7=One Night In Monte Carlo
TTITLE8=Mama's Gone Goodbye
TTITLE9=Let Yourself Go
TTITLE10=After You've Gone
TTITLE11=Melancholy Lullaby/One Night In Monte Carlo
EXTD=YEAR: 2005
EXTT0=
EXTT1=
EXTT2=
EXTT3=
EXTT4=
EXTT5=
EXTT6=
EXTT7=
EXTT8=
EXTT9=
EXTT10=
EXTT11=
PLAYORDER=
